# xmcd CD database file
#
# Track frame offsets:
#	150
#	18414
#	36851
#	53381
#	70605
#	86275
#	103207
#	118519
#	135459
#	150332
#	166978
#	182327
#	198168
#	213895
#	229769
#	250161
#	270212
#	287154
#	300271
#	320296
#
# Disc length: 4482 seconds
#
# Revision: 2
# Processed by: cddbd v1.5.2PL0 Copyright (c) Steve Scherf et al.
# Submitted via: CDex 1.70beta2
#
DISCID=ef118014
DTITLE=Fox Box Die Deutsche Vol 6 - CD 1
DYEAR=2005
DGENRE=Deutsch Fox
TTITLE0=Michael Morgen - Komm geh mit mir nach Kanada (Remix)
TTITLE1=Oliver Frank - Cara Mia (Remix)
TTITLE2=Jeannine - Lass mich alleine (mit dir sein)
TTITLE3=Tommy Fischer - Ich vermisse dich (Club Mix)
TTITLE4=Olaf Henning - Was ist los mit dir
TTITLE5=Michael Larsen - Meinetwegen (Disco Edit)
TTITLE6=G. G. Anderson - Ich seh in deine Augen (Version 2004)
TTITLE7=Denise - Sumbaheya
TTITLE8=Tommy Steiner - Ich denk an dich
TTITLE9=Playa Rouge - Land des Lächelns
TTITLE10=Klaus Densow - Ich wünsch mir eine Nacht mit dir (Remix)
TTITLE11=Jörg Bausch - Ich hab Lust am Leben
TTITLE12=Thorsten Sander - Goodbye my love, goodbye
TTITLE13=Peter Markus - Nur mein Herz entscheidet sich
TTITLE14=Dennis Harder - Jetzt oder nie (Maxi Version)
TTITLE15=Leonie Berger - Baby komm lass uns schweben
TTITLE16=Fantasy - Geh mit ihm (DJ-Dance-Mix)
TTITLE17=Chris Alexandros - Ich will mehr von dir
TTITLE18=Denny Fabian - Viel zu hoch (Maxi-Version)
TTITLE19=Mosaique - Comment ca va
EXTD=YEAR: 2005
EXTT0=
EXTT1=
EXTT2=
EXTT3=
EXTT4=
EXTT5=
EXTT6=
EXTT7=
EXTT8=
EXTT9=
EXTT10=
EXTT11=
EXTT12=
EXTT13=
EXTT14=
EXTT15=
EXTT16=
EXTT17=
EXTT18=
EXTT19=
PLAYORDER=
